<!-- Generator: Adobe Illustrator 19.0.0, SVG Export Plug-In  -->
<svg version="1.1"
	 xmlns="http://www.w3.org/2000/svg" xmlns:xlink="http://www.w3.org/1999/xlink" xmlns:a="http://ns.adobe.com/AdobeSVGViewerExtensions/3.0/"
	 x="0px" y="0px" width="70.8px" height="123.1px" viewBox="0 0 70.8 123.1" style="enable-background:new 0 0 70.8 123.1;"
	 xml:space="preserve">
<style type="text/css">
	.st0{fill:#DB2878;stroke:#111928;stroke-miterlimit:10;}
</style>
<defs>
</defs>
<g id="XMLID_16_">
	<g id="XMLID_18_">
		<rect id="XMLID_34_" x="0.5" y="0.5" class="st0" width="17.4" height="17.4"/>
		<rect id="XMLID_33_" x="0.5" y="17.9" class="st0" width="17.4" height="17.4"/>
		<rect id="XMLID_32_" x="0.5" y="35.4" class="st0" width="17.4" height="17.4"/>
		<rect id="XMLID_31_" x="0.5" y="52.8" class="st0" width="17.4" height="17.4"/>
		<rect id="XMLID_30_" x="0.5" y="70.3" class="st0" width="17.4" height="17.4"/>
		<rect id="XMLID_29_" x="0.5" y="87.7" class="st0" width="17.4" height="17.4"/>
		<rect id="XMLID_28_" x="17.9" y="17.9" class="st0" width="17.4" height="17.4"/>
		<rect id="XMLID_27_" x="17.9" y="35.4" class="st0" width="17.4" height="17.4"/>
		<rect id="XMLID_26_" x="17.9" y="52.8" class="st0" width="17.4" height="17.4"/>
		<rect id="XMLID_25_" x="17.9" y="70.3" class="st0" width="17.4" height="17.4"/>
		<rect id="XMLID_24_" x="17.9" y="87.7" class="st0" width="17.4" height="17.4"/>
		<rect id="XMLID_23_" x="35.4" y="35.4" class="st0" width="17.4" height="17.4"/>
		<rect id="XMLID_22_" x="35.4" y="52.8" class="st0" width="17.4" height="17.4"/>
		<rect id="XMLID_21_" x="35.4" y="70.3" class="st0" width="17.4" height="17.4"/>
		<rect id="XMLID_20_" x="52.8" y="52.8" class="st0" width="17.4" height="17.4"/>
		<rect id="XMLID_19_" x="0.5" y="105.2" class="st0" width="17.4" height="17.4"/>
	</g>
</g>
</svg>
