<?xml version="1.0" encoding="UTF-8"?>
<svg id="Layer_2" data-name="Layer 2" xmlns="http://www.w3.org/2000/svg" viewBox="0 0 91.07 38.75">
  <defs>
    <style>
      .cls-1 {
        fill: #ffffff;
      }

      .cls-2 {
        fill: #be1e2d;
      }
    </style>
  </defs>
  <g id="Layer_1-2" data-name="Layer 1">
    <path class="cls-1" d="M19.38,38.75C8.69,38.75,0,30.06,0,19.38S8.69,0,19.38,0v3C10.35,3,3,10.35,3,19.38s7.35,16.38,16.38,16.38v3Z"/>
    <g>
      <path class="cls-1" d="M54.59,14.63l1.62.1c-.06.87-.33,1.57-.83,2.12s-1.14.82-1.95.82c-.98,0-1.73-.37-2.25-1.1s-.77-1.74-.77-3.02.26-2.3.77-3.04,1.27-1.1,2.28-1.1c1.67,0,2.58,1.03,2.72,3.09l-1.61.12c-.04-1.19-.41-1.78-1.11-1.78-.37,0-.66.19-.88.57s-.33,1.12-.33,2.23c0,.98.1,1.66.3,2.03s.5.55.9.55c.64,0,1.02-.54,1.13-1.61Z"/>
      <path class="cls-1" d="M67.92,13.54c0,2.75-.97,4.12-2.9,4.12-.96,0-1.69-.35-2.17-1.05s-.73-1.73-.73-3.07c0-2.75.97-4.12,2.9-4.12.95,0,1.67.34,2.16,1.03s.74,1.72.74,3.09ZM66.07,13.54c0-1.08-.08-1.8-.25-2.15s-.44-.54-.8-.54-.63.18-.8.54-.25,1.08-.25,2.15.08,1.77.25,2.14.43.56.8.56.63-.18.8-.53.25-1.08.25-2.16Z"/>
      <path class="cls-1" d="M74.3,9.55h1.89c.82,0,1.49.11,2,.33s.92.63,1.23,1.22.46,1.4.46,2.41c0,.72-.09,1.36-.28,1.91s-.43,1-.74,1.32-.65.54-1.03.64-.86.16-1.44.16h-2.1v-8ZM76.06,10.92v5.26h.3c.41,0,.72-.08.95-.23.22-.16.4-.43.54-.82.13-.39.2-.95.2-1.69,0-.68-.07-1.2-.22-1.57-.15-.37-.33-.62-.55-.75-.22-.13-.52-.2-.91-.2h-.3Z"/>
      <path class="cls-1" d="M86.21,9.55h4.86v1.37h-3.11v1.86h2.41v1.37h-2.41v1.97h3.11v1.43h-4.86v-8Z"/>
    </g>
    <g>
      <path class="cls-2" d="M50.71,21.44h1.89c.82,0,1.49.11,2,.33s.92.63,1.23,1.22.46,1.4.46,2.41c0,.72-.09,1.36-.28,1.91s-.43,1-.74,1.32-.65.54-1.03.64-.86.16-1.44.16h-2.1v-8ZM52.47,22.81v5.26h.3c.41,0,.72-.08.95-.23.22-.16.4-.43.54-.82.13-.39.2-.95.2-1.69,0-.68-.07-1.2-.22-1.57-.15-.37-.33-.62-.55-.75-.22-.13-.52-.2-.91-.2h-.3Z"/>
      <path class="cls-2" d="M57.45,21.44h1.76v8h-1.76v-8Z"/>
      <path class="cls-2" d="M59.8,21.44h1.84l1.23,6.1,1.27-6.1h1.51l-1.96,8.04-1.97-.04-1.92-8Z"/>
      <path class="cls-2" d="M66.24,21.44h1.76v8h-1.76v-8Z"/>
      <path class="cls-2" d="M74.41,23.18l-1.45.56c-.21-.66-.59-.99-1.14-.99-.26,0-.46.07-.61.22s-.23.32-.23.51c0,.23.09.41.27.54s.55.31,1.12.53c.52.19.92.38,1.22.57s.53.44.71.76.27.7.27,1.12c0,.75-.26,1.36-.77,1.84s-1.2.72-2.07.72c-1.45,0-2.38-.73-2.78-2.2l1.54-.44c.19.8.62,1.21,1.28,1.21.3,0,.55-.08.74-.24s.28-.37.28-.62c0-.2-.07-.37-.2-.52s-.44-.32-.91-.49c-.61-.22-1.07-.42-1.37-.59s-.55-.43-.74-.76-.29-.71-.29-1.13c0-.72.23-1.31.69-1.77s1.08-.69,1.84-.69c1.39,0,2.26.62,2.6,1.86Z"/>
      <path class="cls-2" d="M75.65,21.44h1.76v8h-1.76v-8Z"/>
      <path class="cls-2" d="M84.44,25.44c0,2.75-.97,4.12-2.9,4.12-.96,0-1.69-.35-2.17-1.05s-.73-1.73-.73-3.07c0-2.75.97-4.12,2.9-4.12.95,0,1.67.34,2.16,1.03s.74,1.72.74,3.09ZM82.59,25.44c0-1.08-.08-1.8-.25-2.15s-.44-.54-.8-.54-.63.18-.80.54-.25,1.08-.25,2.15.08,1.77.25,2.14.43.56.8.56.63-.18.8-.53.25-1.08.25-2.16Z"/>
      <path class="cls-2" d="M85.6,21.44h1.95l2.06,4.97v-4.97h1.36v8h-1.57l-2.44-5.79v5.79h-1.36v-8Z"/>
    </g>
    <path class="cls-2" d="M25.57,38.75h-1.5V0h1.5c10.68,0,19.38,8.69,19.38,19.38s-8.69,19.38-19.38,19.38ZM27.07,3.07v32.62c8.33-.76,14.88-7.78,14.88-16.31S35.4,3.83,27.07,3.07Z"/>
    <circle class="cls-2" cx="59.03" cy="13.65" r=".65"/>
    <circle class="cls-2" cx="71.19" cy="13.65" r=".65"/>
    <circle class="cls-2" cx="83.01" cy="13.65" r=".65"/>
  </g>
</svg>
