<?xml version="1.0" encoding="UTF-8"?>
<svg id="Layer_1" data-name="Layer 1" xmlns="http://www.w3.org/2000/svg" viewBox="0 0 357.4 129.93">
  <defs>
    <style>
      .cls-1 {
        fill: #4169E1;
      }

      .cls-2 {
        fill: #e9e9ea;
      }
    </style>
  </defs>
  <path class="cls-2" d="m160.92,55.19c-3.4-1.8-6.05-4.31-7.96-7.54-1.91-3.22-2.86-6.87-2.86-10.94s.95-7.7,2.86-10.9c1.91-3.19,4.55-5.69,7.92-7.5,3.37-1.8,7.23-2.71,11.56-2.71,4.07,0,7.64.83,10.7,2.47,3.06,1.65,5.37,4.02,6.92,7.11l-7.42,4.33c-1.18-1.91-2.67-3.34-4.44-4.29-1.78-.95-3.72-1.43-5.84-1.43-3.61,0-6.6,1.17-8.96,3.52-2.37,2.35-3.56,5.48-3.56,9.39s1.17,7.05,3.52,9.39c2.34,2.35,5.35,3.52,9,3.52,2.11,0,4.06-.48,5.84-1.43,1.78-.95,3.26-2.38,4.44-4.29l7.42,4.33c-1.6,3.09-3.93,5.48-6.99,7.15-3.07,1.67-6.61,2.51-10.63,2.51-4.28,0-8.12-.9-11.52-2.71Z"/>
  <path class="cls-2" d="m213.67,55.19c-3.35-1.8-5.97-4.31-7.85-7.54-1.88-3.22-2.82-6.87-2.82-10.94s.94-7.7,2.82-10.9c1.88-3.19,4.49-5.69,7.85-7.5,3.35-1.8,7.11-2.71,11.29-2.71s8.01.9,11.36,2.71c3.35,1.8,5.96,4.3,7.85,7.5,1.88,3.19,2.82,6.83,2.82,10.9s-.94,7.72-2.82,10.94c-1.88,3.22-4.5,5.73-7.85,7.54-3.35,1.8-7.14,2.71-11.36,2.71s-7.94-.9-11.29-2.71Zm20.1-9.12c2.32-2.37,3.48-5.49,3.48-9.35s-1.16-6.98-3.48-9.35c-2.32-2.37-5.26-3.56-8.81-3.56s-6.48,1.19-8.77,3.56c-2.29,2.37-3.44,5.49-3.44,9.35s1.15,6.98,3.44,9.35c2.29,2.37,5.22,3.56,8.77,3.56s6.49-1.18,8.81-3.56Z"/>
  <path class="cls-2" d="m302.64,0v57.35h-9.27v-5.33c-1.6,1.96-3.57,3.43-5.91,4.41-2.35.98-4.93,1.47-7.77,1.47-3.97,0-7.54-.87-10.7-2.63-3.17-1.75-5.66-4.24-7.46-7.46-1.8-3.22-2.71-6.92-2.71-11.09s.9-7.86,2.71-11.05c1.8-3.19,4.29-5.67,7.46-7.42,3.17-1.75,6.74-2.63,10.7-2.63,2.73,0,5.23.46,7.5,1.39,2.27.93,4.2,2.32,5.8,4.17V0h9.66Zm-15.53,48.04c1.85-1.05,3.32-2.56,4.41-4.52s1.62-4.23,1.62-6.8-.54-4.84-1.62-6.8c-1.08-1.96-2.55-3.46-4.41-4.52-1.86-1.06-3.94-1.58-6.26-1.58s-4.41.53-6.26,1.58c-1.85,1.06-3.32,2.56-4.41,4.52-1.08,1.96-1.62,4.23-1.62,6.8s.54,4.84,1.62,6.8,2.55,3.47,4.41,4.52c1.86,1.06,3.94,1.59,6.26,1.59s4.41-.53,6.26-1.59Z"/>
  <path class="cls-2" d="m349.52,45.22l5.1,5.95c-1.8,2.22-4.12,3.89-6.96,5.02s-6.03,1.7-9.58,1.7c-4.53,0-8.53-.9-11.98-2.71-3.45-1.8-6.12-4.31-8-7.54-1.88-3.22-2.82-6.87-2.82-10.94s.91-7.64,2.74-10.86c1.83-3.22,4.35-5.73,7.57-7.54,3.22-1.8,6.87-2.71,10.94-2.71s7.38.84,10.55,2.51c3.17,1.68,5.68,4.07,7.54,7.19,1.85,3.12,2.78,6.76,2.78,10.94l-31.61,6.18c.98,2.37,2.55,4.17,4.71,5.41,2.16,1.24,4.77,1.86,7.81,1.86,4.48,0,8.22-1.49,11.21-4.48Zm-21.6-18.4c-2.19,2.32-3.28,5.44-3.28,9.35v.08l23.34-4.48c-.67-2.52-2.02-4.56-4.06-6.11-2.04-1.55-4.5-2.32-7.38-2.32-3.56,0-6.43,1.16-8.62,3.48Z"/>
  <path class="cls-2" d="m163.35,105.25c-2.53,0-4.8-.51-6.8-1.52-2.01-1.01-3.58-2.42-4.73-4.23s-1.72-3.89-1.72-6.24.57-4.48,1.72-6.27c1.15-1.79,2.72-3.19,4.73-4.19,2.01-1,4.27-1.5,6.8-1.5,2.33,0,4.41.46,6.25,1.39,1.84.93,3.3,2.28,4.4,4.05,1.09,1.78,1.64,3.95,1.64,6.51s-.54,4.7-1.62,6.49-2.54,3.16-4.37,4.1c-1.84.94-3.94,1.41-6.3,1.41Zm.25-2.82c1.89,0,3.58-.38,5.08-1.14,1.5-.76,2.68-1.84,3.54-3.22.86-1.39,1.29-2.99,1.29-4.81s-.43-3.46-1.29-4.83c-.86-1.37-2.04-2.44-3.54-3.2-1.5-.76-3.19-1.14-5.08-1.14s-3.52.38-5.01,1.14c-1.48.76-2.66,1.83-3.54,3.2-.88,1.37-1.32,2.98-1.32,4.83s.44,3.42,1.32,4.81c.88,1.39,2.06,2.46,3.54,3.22s3.15,1.14,5.01,1.14Zm10.01,2.6v-7.07l.35-4.75-.51-4.75v-16.65h3.59v33.22h-3.44Z"/>
  <path class="cls-2" d="m191.92,76.34c-.74,0-1.37-.22-1.87-.67-.51-.45-.76-.98-.76-1.61s.25-1.16.76-1.59,1.13-.65,1.87-.65,1.37.21,1.87.63c.51.42.76.94.76,1.57s-.24,1.21-.73,1.66c-.49.45-1.12.67-1.9.67Zm-1.82,28.69v-23.5h3.59v23.5h-3.59Z"/>
  <path class="cls-2" d="m213.57,105.03l-11.78-23.5h3.74l10.82,21.8h-1.77l10.97-21.8h3.54l-11.83,23.5h-3.69Z"/>
  <path class="cls-2" d="m239.01,76.34c-.74,0-1.37-.22-1.87-.67-.51-.45-.76-.98-.76-1.61s.25-1.16.76-1.59,1.13-.65,1.87-.65,1.37.21,1.87.63c.51.42.76.94.76,1.57s-.24,1.21-.73,1.66c-.49.45-1.12.67-1.9.67Zm-1.82,28.69v-23.5h3.59v23.5h-3.59Z"/>
  <path class="cls-2" d="m260.96,105.25c-2.19,0-4.27-.28-6.22-.83-1.96-.55-3.49-1.25-4.6-2.08l1.62-2.51c1.08.72,2.46,1.34,4.15,1.86,1.69.52,3.46.78,5.31.78,2.53,0,4.35-.35,5.46-1.05,1.11-.7,1.67-1.63,1.67-2.8,0-.86-.31-1.54-.94-2.04-.62-.49-1.44-.87-2.45-1.12-1.01-.25-2.14-.47-3.39-.65-1.25-.18-2.49-.39-3.72-.63-1.23-.24-2.35-.59-3.36-1.05-1.01-.46-1.83-1.1-2.45-1.9-.62-.81-.94-1.88-.94-3.22s.4-2.43,1.21-3.45c.81-1.01,2-1.81,3.57-2.4,1.57-.58,3.48-.87,5.74-.87,1.72,0,3.44.2,5.16.6s3.14.93,4.25,1.59l-1.57,2.55c-1.18-.72-2.44-1.23-3.79-1.54s-2.7-.47-4.05-.47c-2.39,0-4.16.37-5.29,1.1-1.13.73-1.69,1.66-1.69,2.8,0,.9.31,1.6.94,2.1.62.51,1.45.9,2.48,1.19,1.03.28,2.16.51,3.39.69,1.23.18,2.46.4,3.69.65,1.23.25,2.36.6,3.39,1.03s1.85,1.04,2.48,1.84.94,1.83.94,3.11c0,1.37-.43,2.56-1.29,3.56-.86,1-2.11,1.78-3.74,2.33-1.64.55-3.62.83-5.94.83Z"/>
  <path class="cls-2" d="m283.36,76.34c-.74,0-1.37-.22-1.87-.67-.51-.45-.76-.98-.76-1.61s.25-1.16.76-1.59,1.13-.65,1.87-.65,1.37.21,1.87.63c.51.42.76.94.76,1.57s-.24,1.21-.73,1.66c-.49.45-1.12.67-1.9.67Zm-1.82,28.69v-23.5h3.59v23.5h-3.59Z"/>
  <path class="cls-2" d="m309,105.25c-2.6,0-4.91-.52-6.93-1.55-2.02-1.03-3.63-2.45-4.81-4.27-1.18-1.82-1.77-3.88-1.77-6.18s.59-4.43,1.77-6.22c1.18-1.79,2.78-3.19,4.81-4.21s4.33-1.52,6.93-1.52,4.96.52,7,1.54c2.04,1.03,3.64,2.43,4.81,4.21,1.16,1.78,1.74,3.84,1.74,6.2s-.58,4.39-1.74,6.2c-1.16,1.81-2.77,3.22-4.83,4.25-2.06,1.03-4.38,1.55-6.98,1.55Zm0-2.82c1.92,0,3.62-.38,5.11-1.14s2.66-1.84,3.52-3.22c.86-1.39,1.29-2.99,1.29-4.81s-.43-3.46-1.29-4.83c-.86-1.37-2.03-2.44-3.52-3.2-1.48-.76-3.17-1.14-5.06-1.14s-3.57.38-5.06,1.14c-1.48.76-2.66,1.83-3.54,3.2-.88,1.37-1.32,2.98-1.32,4.83s.44,3.42,1.32,4.81c.88,1.39,2.05,2.46,3.51,3.22,1.47.76,3.14,1.14,5.03,1.14Z"/>
  <path class="cls-2" d="m346.48,81.3c2.16,0,4.05.37,5.69,1.1,1.63.73,2.92,1.84,3.84,3.34.93,1.49,1.39,3.37,1.39,5.64v13.65h-3.59v-13.34c0-2.48-.7-4.35-2.1-5.62-1.4-1.27-3.36-1.9-5.89-1.9-1.89,0-3.53.34-4.93,1.01s-2.48,1.64-3.24,2.91c-.76,1.27-1.14,2.8-1.14,4.59v12.36h-3.59v-23.5h3.44v6.45l-.56-1.21c.84-1.7,2.19-3.04,4.05-4.01s4.06-1.46,6.63-1.46Z"/>
  <rect class="cls-1" y="17.43" width="25.62" height="90.18" rx="5.24" ry="5.24"/>
  <rect class="cls-1" x="34.84" y="81.99" width="25.62" height="25.62" rx="5.22" ry="5.22"/>
  <rect class="cls-1" x="34.84" y="17.43" width="25.62" height="25.62" rx="5.24" ry="5.24"/>
  <rect class="cls-1" x="104.53" y="17.43" width="25.62" height="90.18" rx="5.23" ry="5.23"/>
  <rect class="cls-1" x="69.69" y="62.52" width="25.62" height="45.09" rx="5.15" ry="5.15"/>
</svg>