<!-- Generator: Adobe Illustrator 19.0.0, SVG Export Plug-In  -->
<svg version="1.1"
	 xmlns="http://www.w3.org/2000/svg" xmlns:xlink="http://www.w3.org/1999/xlink" xmlns:a="http://ns.adobe.com/AdobeSVGViewerExtensions/3.0/"
	 x="0px" y="0px" width="218px" height="26.5px" viewBox="0 0 218 26.5" style="enable-background:new 0 0 218 26.5;"
	 xml:space="preserve">
<style type="text/css">
	.st0{fill:#EFEFEF;}
	.st1{fill:#DB2878;stroke:#111928;stroke-miterlimit:10;}
</style>
<defs>
</defs>
<g id="XMLID_16_">
	<g id="XMLID_74_">
		<path id="XMLID_84_" class="st0" d="M7.7,24.8c1.3,0,2.5-0.4,3.5-1.1c1-0.8,1.5-1.8,1.5-3.2h1.8l0,0.1c0.1,1.7-0.6,3.1-2,4.2
			c-1.4,1.1-3,1.7-4.9,1.7c-2.5,0-4.4-0.8-5.7-2.5c-1.4-1.7-2-3.9-2-6.5v-0.7c0-2.6,0.7-4.8,2-6.5c1.4-1.7,3.3-2.5,5.7-2.5
			c1.4,0,2.7,0.3,3.8,0.8c1.2,0.5,2.1,1.2,2.8,2.1l0.1,4h-1.7l-0.3-3.2c-0.5-0.6-1.2-1.1-2-1.4C9.7,9.6,8.7,9.4,7.7,9.4
			c-1.9,0-3.4,0.7-4.3,2.1C2.5,12.9,2,14.6,2,16.7v0.7c0,2.1,0.5,3.9,1.4,5.3C4.3,24.1,5.8,24.8,7.7,24.8z"/>
		<path id="XMLID_81_" class="st0" d="M18.3,16.8c0-2.7,0.7-4.9,2.2-6.6s3.4-2.6,5.8-2.6c2.4,0,4.4,0.9,5.8,2.6
			c1.5,1.7,2.2,3.9,2.2,6.6v0.6c0,2.7-0.7,4.9-2.2,6.6c-1.5,1.7-3.4,2.6-5.8,2.6c-2.4,0-4.4-0.9-5.8-2.6c-1.5-1.7-2.2-3.9-2.2-6.6
			V16.8z M20.3,17.4c0,2.1,0.5,3.9,1.6,5.3c1.1,1.4,2.5,2.1,4.4,2.1c1.9,0,3.3-0.7,4.4-2.1c1.1-1.4,1.6-3.2,1.6-5.3v-0.6
			c0-2.1-0.5-3.8-1.6-5.3c-1.1-1.4-2.5-2.2-4.4-2.2c-1.9,0-3.3,0.7-4.4,2.2c-1.1,1.4-1.6,3.2-1.6,5.3V17.4z"/>
		<path id="XMLID_78_" class="st0" d="M50.3,23.5c-0.6,0.9-1.4,1.7-2.3,2.2c-0.9,0.5-2.1,0.8-3.4,0.8c-2.2,0-3.9-0.8-5.1-2.4
			c-1.2-1.6-1.8-3.8-1.8-6.5v-0.4c0-2.9,0.6-5.2,1.8-6.9c1.2-1.7,2.9-2.6,5.1-2.6c1.3,0,2.4,0.3,3.3,0.8c0.9,0.5,1.7,1.3,2.3,2.3v-9
			l-2.7-0.2V0h2.7h2v24.5l2.7,0.2v1.5h-4.5L50.3,23.5z M39.7,17.6c0,2.2,0.4,3.9,1.3,5.2c0.9,1.3,2.2,1.9,4,1.9
			c1.3,0,2.4-0.3,3.2-0.9c0.9-0.6,1.5-1.4,2-2.4v-8.6c-0.4-1-1.1-1.9-1.9-2.5c-0.8-0.6-1.9-1-3.3-1c-1.8,0-3.1,0.7-4,2.2
			c-0.9,1.4-1.3,3.3-1.3,5.6V17.6z"/>
		<path id="XMLID_75_" class="st0" d="M66,26.5c-2.3,0-4.2-0.8-5.7-2.5c-1.5-1.7-2.2-3.8-2.2-6.4v-0.9c0-2.6,0.7-4.7,2.2-6.5
			c1.5-1.7,3.3-2.6,5.4-2.6c2.2,0,4,0.7,5.2,2.1s1.9,3.3,1.9,5.6v1.7H60.1v0.5c0,2,0.5,3.7,1.6,5.1c1.1,1.4,2.5,2.1,4.3,2.1
			c1.2,0,2.3-0.2,3.2-0.5c0.9-0.3,1.6-0.8,2.3-1.5l0.9,1.4c-0.7,0.7-1.5,1.3-2.6,1.7C68.7,26.3,67.5,26.5,66,26.5z M65.8,9.4
			c-1.5,0-2.7,0.6-3.7,1.7c-1,1.1-1.6,2.6-1.8,4.3l0,0.1h10.6v-0.5c0-1.6-0.5-2.9-1.4-4C68.6,9.9,67.3,9.4,65.8,9.4z"/>
	</g>
	<g id="XMLID_52_">
		<path id="XMLID_71_" class="st0" d="M106,23.2c-0.6,1-1.4,1.8-2.5,2.4c-1.1,0.6-2.3,0.9-3.7,0.9c-2.1,0-3.8-0.8-5-2.4
			c-1.2-1.6-1.8-3.8-1.8-6.6v-0.4c0-2.9,0.6-5.2,1.8-6.8c1.2-1.7,2.9-2.5,5-2.5c1.4,0,2.7,0.3,3.7,1c1,0.7,1.8,1.6,2.5,2.7V0.9h-2.7
			V0h2.7h0.9v25.2h2.7v0.9H106L106,23.2z M94,17.4c0,2.5,0.5,4.5,1.5,6c1,1.5,2.4,2.2,4.4,2.2c1.6,0,2.9-0.4,3.9-1.1
			c1-0.7,1.8-1.7,2.3-2.9v-8.5c-0.4-1.3-1.1-2.4-2.1-3.3c-1-0.9-2.3-1.3-4.1-1.3c-1.9,0-3.4,0.8-4.4,2.4c-1,1.6-1.5,3.6-1.5,6.1
			V17.4z"/>
		<path id="XMLID_68_" class="st0" d="M113,25.2h2.7V8.9H113V8h3.6v17.2h2.7v0.9H113V25.2z M116.6,2.3h-0.9V0h0.9V2.3z"/>
		<path id="XMLID_66_" class="st0" d="M127.9,8.9h-2.4l5.2,13.4l0.9,2.4h0.1l0.9-2.4l5.2-13.4h-2.4V8h5.3v0.9h-2l-6.7,17.2l0,0h-0.9
			l-6.7-17.2h-2V8h5.3V8.9z"/>
		<path id="XMLID_63_" class="st0" d="M142.7,25.2h2.7V8.9h-2.7V8h3.6v17.2h2.7v0.9h-6.4V25.2z M146.3,2.3h-0.9V0h0.9V2.3z"/>
		<path id="XMLID_61_" class="st0" d="M165.7,13.5h-0.9v-2.9c-0.6-0.6-1.3-1.1-2.2-1.5c-0.9-0.3-1.9-0.5-3.1-0.5
			c-1.7,0-3,0.4-3.9,1.1c-0.9,0.7-1.3,1.6-1.3,2.5c0,0.9,0.4,1.8,1.1,2.4c0.7,0.7,2.2,1.3,4.4,1.8c2,0.5,3.6,1.1,4.6,1.9
			c1,0.8,1.6,1.9,1.6,3.4c0,1.4-0.6,2.6-1.7,3.5c-1.2,0.9-2.7,1.3-4.6,1.3c-1.3,0-2.5-0.2-3.6-0.6c-1.1-0.4-2-1-2.8-1.8v-3.2h0.9
			v2.7c0.7,0.7,1.5,1.2,2.4,1.5c1,0.3,2,0.5,3.1,0.5c1.7,0,3-0.4,4-1.2c1-0.8,1.5-1.7,1.5-2.7c0-1-0.4-1.8-1.2-2.6
			c-0.8-0.8-2.3-1.4-4.3-1.9c-2.1-0.4-3.7-1-4.7-1.8c-1-0.7-1.5-1.8-1.5-3.2c0-1.3,0.5-2.4,1.6-3.3c1.1-0.9,2.6-1.3,4.4-1.3
			c1.3,0,2.5,0.2,3.6,0.7c1.1,0.4,2,1,2.7,1.8V13.5z"/>
		<path id="XMLID_58_" class="st0" d="M169.8,25.2h2.7V8.9h-2.7V8h3.6v17.2h2.7v0.9h-6.4V25.2z M173.5,2.3h-0.9V0h0.9V2.3z"/>
		<path id="XMLID_55_" class="st0" d="M180.3,16.7c0-2.7,0.7-4.8,2.2-6.5c1.5-1.7,3.4-2.5,5.7-2.5c2.4,0,4.3,0.8,5.7,2.5
			c1.5,1.7,2.2,3.9,2.2,6.5v0.7c0,2.7-0.7,4.8-2.2,6.5c-1.5,1.7-3.4,2.5-5.7,2.5c-2.4,0-4.3-0.8-5.7-2.5c-1.5-1.7-2.2-3.9-2.2-6.5
			V16.7z M181.2,17.4c0,2.3,0.6,4.2,1.9,5.8c1.3,1.6,3,2.4,5.1,2.4c2.1,0,3.8-0.8,5.1-2.4c1.3-1.6,1.9-3.5,1.9-5.8v-0.7
			c0-2.2-0.6-4.1-1.9-5.7c-1.3-1.6-3-2.4-5.1-2.4c-2.1,0-3.8,0.8-5.1,2.4c-1.3,1.6-1.9,3.5-1.9,5.7V17.4z"/>
		<path id="XMLID_53_" class="st0" d="M199.4,25.2h2.7V8.9h-2.7V8h3.5l0.1,3.7c0.5-1.3,1.3-2.3,2.4-3c1.1-0.7,2.3-1.1,3.9-1.1
			c2,0,3.5,0.6,4.4,1.9c1,1.2,1.5,3.2,1.5,5.9v9.8h2.7v0.9h-6.4v-0.9h2.7v-9.8c0-2.5-0.4-4.3-1.3-5.3c-0.9-1-2.1-1.5-3.7-1.5
			c-2,0-3.4,0.6-4.4,1.8c-1,1.2-1.6,2.7-1.9,4.5v10.4h2.7v0.9h-6.4V25.2z"/>
	</g>
	<g id="XMLID_17_">
		<g id="XMLID_19_">
			<rect id="XMLID_35_" x="78.3" y="8.3" class="st1" width="2.3" height="2.3"/>
			<rect id="XMLID_34_" x="78.3" y="10.6" class="st1" width="2.3" height="2.3"/>
			<rect id="XMLID_33_" x="78.3" y="12.9" class="st1" width="2.3" height="2.3"/>
			<rect id="XMLID_32_" x="78.3" y="15.1" class="st1" width="2.3" height="2.3"/>
			<rect id="XMLID_31_" x="78.3" y="17.4" class="st1" width="2.3" height="2.3"/>
			<rect id="XMLID_30_" x="78.3" y="19.7" class="st1" width="2.3" height="2.3"/>
			<rect id="XMLID_29_" x="80.6" y="10.6" class="st1" width="2.3" height="2.3"/>
			<rect id="XMLID_28_" x="80.6" y="12.9" class="st1" width="2.3" height="2.3"/>
			<rect id="XMLID_27_" x="80.6" y="15.1" class="st1" width="2.3" height="2.3"/>
			<rect id="XMLID_26_" x="80.6" y="17.4" class="st1" width="2.3" height="2.3"/>
			<rect id="XMLID_25_" x="80.6" y="19.7" class="st1" width="2.3" height="2.3"/>
			<rect id="XMLID_24_" x="82.8" y="12.9" class="st1" width="2.3" height="2.3"/>
			<rect id="XMLID_23_" x="82.8" y="15.1" class="st1" width="2.3" height="2.3"/>
			<rect id="XMLID_22_" x="82.8" y="17.4" class="st1" width="2.3" height="2.3"/>
			<rect id="XMLID_21_" x="85.1" y="15.1" class="st1" width="2.3" height="2.3"/>
			<rect id="XMLID_20_" x="78.3" y="22" class="st1" width="2.3" height="2.3"/>
		</g>
	</g>
</g>
</svg>
