<?xml version="1.0" encoding="UTF-8"?>
<svg id="Layer_1" data-name="Layer 1" xmlns="http://www.w3.org/2000/svg" viewBox="0 0 357.4 129.93">
  <defs>
    <style>
      .cls-1 {
        fill: #8a5ba5;
      }

      .cls-2 {
        fill: #e9e9ea;
      }
    </style>
  </defs>
  <path class="cls-2" d="m160.92,55.19c-3.4-1.8-6.05-4.31-7.96-7.54-1.91-3.22-2.86-6.87-2.86-10.94s.95-7.7,2.86-10.9c1.91-3.19,4.55-5.69,7.92-7.5,3.37-1.8,7.23-2.71,11.56-2.71,4.07,0,7.64.83,10.7,2.47,3.06,1.65,5.37,4.02,6.92,7.11l-7.42,4.33c-1.18-1.91-2.67-3.34-4.44-4.29-1.78-.95-3.72-1.43-5.84-1.43-3.61,0-6.6,1.17-8.96,3.52-2.37,2.35-3.56,5.48-3.56,9.39s1.17,7.05,3.52,9.39c2.34,2.35,5.35,3.52,9,3.52,2.11,0,4.06-.48,5.84-1.43,1.78-.95,3.26-2.38,4.44-4.29l7.42,4.33c-1.6,3.09-3.93,5.48-6.99,7.15-3.07,1.67-6.61,2.51-10.63,2.51-4.28,0-8.12-.9-11.52-2.71Z"/>
  <path class="cls-2" d="m213.67,55.19c-3.35-1.8-5.97-4.31-7.85-7.54-1.88-3.22-2.82-6.87-2.82-10.94s.94-7.7,2.82-10.9c1.88-3.19,4.49-5.69,7.85-7.5,3.35-1.8,7.11-2.71,11.29-2.71s8.01.9,11.36,2.71c3.35,1.8,5.96,4.3,7.85,7.5,1.88,3.19,2.82,6.83,2.82,10.9s-.94,7.72-2.82,10.94c-1.88,3.22-4.5,5.73-7.85,7.54-3.35,1.8-7.14,2.71-11.36,2.71s-7.94-.9-11.29-2.71Zm20.1-9.12c2.32-2.37,3.48-5.49,3.48-9.35s-1.16-6.98-3.48-9.35c-2.32-2.37-5.26-3.56-8.81-3.56s-6.48,1.19-8.77,3.56c-2.29,2.37-3.44,5.49-3.44,9.35s1.15,6.98,3.44,9.35c2.29,2.37,5.22,3.56,8.77,3.56s6.49-1.18,8.81-3.56Z"/>
  <path class="cls-2" d="m302.64,0v57.35h-9.27v-5.33c-1.6,1.96-3.57,3.43-5.91,4.41-2.35.98-4.93,1.47-7.77,1.47-3.97,0-7.54-.87-10.7-2.63-3.17-1.75-5.66-4.24-7.46-7.46-1.8-3.22-2.71-6.92-2.71-11.09s.9-7.86,2.71-11.05c1.8-3.19,4.29-5.67,7.46-7.42,3.17-1.75,6.74-2.63,10.7-2.63,2.73,0,5.23.46,7.5,1.39,2.27.93,4.2,2.32,5.8,4.17V0h9.66Zm-15.53,48.04c1.85-1.05,3.32-2.56,4.41-4.52s1.62-4.23,1.62-6.8-.54-4.84-1.62-6.8c-1.08-1.96-2.55-3.46-4.41-4.52-1.86-1.06-3.94-1.58-6.26-1.58s-4.41.53-6.26,1.58c-1.85,1.06-3.32,2.56-4.41,4.52-1.08,1.96-1.62,4.23-1.62,6.8s.54,4.84,1.62,6.8,2.55,3.47,4.41,4.52c1.86,1.06,3.94,1.59,6.26,1.59s4.41-.53,6.26-1.59Z"/>
  <path class="cls-2" d="m349.52,45.22l5.1,5.95c-1.8,2.22-4.12,3.89-6.96,5.02s-6.03,1.7-9.58,1.7c-4.53,0-8.53-.9-11.98-2.71-3.45-1.8-6.12-4.31-8-7.54-1.88-3.22-2.82-6.87-2.82-10.94s.91-7.64,2.74-10.86c1.83-3.22,4.35-5.73,7.57-7.54,3.22-1.8,6.87-2.71,10.94-2.71s7.38.84,10.55,2.51c3.17,1.68,5.68,4.07,7.54,7.19,1.85,3.12,2.78,6.76,2.78,10.94l-31.61,6.18c.98,2.37,2.55,4.17,4.71,5.41,2.16,1.24,4.77,1.86,7.81,1.86,4.48,0,8.22-1.49,11.21-4.48Zm-21.6-18.4c-2.19,2.32-3.28,5.44-3.28,9.35v.08l23.34-4.48c-.67-2.52-2.02-4.56-4.06-6.11-2.04-1.55-4.5-2.32-7.38-2.32-3.56,0-6.43,1.16-8.62,3.48Z"/>
  <path class="cls-2" d="m163.35,105.25c-2.53,0-4.8-.51-6.8-1.52-2.01-1.01-3.58-2.42-4.73-4.23s-1.72-3.89-1.72-6.24.57-4.48,1.72-6.27c1.15-1.79,2.72-3.19,4.73-4.19,2.01-1,4.27-1.5,6.8-1.5,2.33,0,4.41.46,6.25,1.39,1.84.93,3.3,2.28,4.4,4.05,1.09,1.78,1.64,3.95,1.64,6.51s-.54,4.7-1.62,6.49-2.54,3.16-4.37,4.1c-1.84.94-3.94,1.41-6.3,1.41Zm.25-2.82c1.89,0,3.58-.38,5.08-1.14,1.5-.76,2.68-1.84,3.54-3.22.86-1.39,1.29-2.99,1.29-4.81s-.43-3.46-1.29-4.83c-.86-1.37-2.04-2.44-3.54-3.2-1.5-.76-3.19-1.14-5.08-1.14s-3.52.38-5.01,1.14c-1.48.76-2.66,1.83-3.54,3.2-.88,1.37-1.32,2.98-1.32,4.83s.44,3.42,1.32,4.81c.88,1.39,2.06,2.46,3.54,3.22s3.15,1.14,5.01,1.14Zm10.01,2.6v-7.07l.35-4.75-.51-4.75v-16.65h3.59v33.22h-3.44Z"/>
  <path class="cls-2" d="m191.92,76.34c-.74,0-1.37-.22-1.87-.67-.51-.45-.76-.98-.76-1.61s.25-1.16.76-1.59,1.13-.65,1.87-.65,1.37.21,1.87.63c.51.42.76.94.76,1.57s-.24,1.21-.73,1.66c-.49.45-1.12.67-1.9.67Zm-1.82,28.69v-23.5h3.59v23.5h-3.59Z"/>
  <path class="cls-2" d="m213.57,105.03l-11.78-23.5h3.74l10.82,21.8h-1.77l10.97-21.8h3.54l-11.83,23.5h-3.69Z"/>
  <path class="cls-2" d="m239.01,76.34c-.74,0-1.37-.22-1.87-.67-.51-.45-.76-.98-.76-1.61s.25-1.16.76-1.59,1.13-.65,1.87-.65,1.37.21,1.87.63c.51.42.76.94.76,1.57s-.24,1.21-.73,1.66c-.49.45-1.12.67-1.9.67Zm-1.82,28.69v-23.5h3.59v23.5h-3.59Z"/>
  <path class="cls-2" d="m260.96,105.25c-2.19,0-4.27-.28-6.22-.83-1.96-.55-3.49-1.25-4.6-2.08l1.62-2.51c1.08.72,2.46,1.34,4.15,1.86,1.69.52,3.46.78,5.31.78,2.53,0,4.35-.35,5.46-1.05,1.11-.7,1.67-1.63,1.67-2.8,0-.86-.31-1.54-.94-2.04-.62-.49-1.44-.87-2.45-1.12-1.01-.25-2.14-.47-3.39-.65-1.25-.18-2.49-.39-3.72-.63-1.23-.24-2.35-.59-3.36-1.05-1.01-.46-1.83-1.1-2.45-1.9-.62-.81-.94-1.88-.94-3.22s.4-2.43,1.21-3.45c.81-1.01,2-1.81,3.57-2.4,1.57-.58,3.48-.87,5.74-.87,1.72,0,3.44.2,5.16.6s3.14.93,4.25,1.59l-1.57,2.55c-1.18-.72-2.44-1.23-3.79-1.54s-2.7-.47-4.05-.47c-2.39,0-4.16.37-5.29,1.1-1.13.73-1.69,1.66-1.69,2.8,0,.9.31,1.6.94,2.1.62.51,1.45.9,2.48,1.19,1.03.28,2.16.51,3.39.69,1.23.18,2.46.4,3.69.65,1.23.25,2.36.6,3.39,1.03s1.85,1.04,2.48,1.84.94,1.83.94,3.11c0,1.37-.43,2.56-1.29,3.56-.86,1-2.11,1.78-3.74,2.33-1.64.55-3.62.83-5.94.83Z"/>
  <path class="cls-2" d="m283.36,76.34c-.74,0-1.37-.22-1.87-.67-.51-.45-.76-.98-.76-1.61s.25-1.16.76-1.59,1.13-.65,1.87-.65,1.37.21,1.87.63c.51.42.76.94.76,1.57s-.24,1.21-.73,1.66c-.49.45-1.12.67-1.9.67Zm-1.82,28.69v-23.5h3.59v23.5h-3.59Z"/>
  <path class="cls-2" d="m309,105.25c-2.6,0-4.91-.52-6.93-1.55-2.02-1.03-3.63-2.45-4.81-4.27-1.18-1.82-1.77-3.88-1.77-6.18s.59-4.43,1.77-6.22c1.18-1.79,2.78-3.19,4.81-4.21s4.33-1.52,6.93-1.52,4.96.52,7,1.54c2.04,1.03,3.64,2.43,4.81,4.21,1.16,1.78,1.74,3.84,1.74,6.2s-.58,4.39-1.74,6.2c-1.16,1.81-2.77,3.22-4.83,4.25-2.06,1.03-4.38,1.55-6.98,1.55Zm0-2.82c1.92,0,3.62-.38,5.11-1.14s2.66-1.84,3.52-3.22c.86-1.39,1.29-2.99,1.29-4.81s-.43-3.46-1.29-4.83c-.86-1.37-2.03-2.44-3.52-3.2-1.48-.76-3.17-1.14-5.06-1.14s-3.57.38-5.06,1.14c-1.48.76-2.66,1.83-3.54,3.2-.88,1.37-1.32,2.98-1.32,4.83s.44,3.42,1.32,4.81c.88,1.39,2.05,2.46,3.51,3.22,1.47.76,3.14,1.14,5.03,1.14Z"/>
  <path class="cls-2" d="m346.48,81.3c2.16,0,4.05.37,5.69,1.1,1.63.73,2.92,1.84,3.84,3.34.93,1.49,1.39,3.37,1.39,5.64v13.65h-3.59v-13.34c0-2.48-.7-4.35-2.1-5.62-1.4-1.27-3.36-1.9-5.89-1.9-1.89,0-3.53.34-4.93,1.01s-2.48,1.64-3.24,2.91c-.76,1.27-1.14,2.8-1.14,4.59v12.36h-3.59v-23.5h3.44v6.45l-.56-1.21c.84-1.7,2.19-3.04,4.05-4.01s4.06-1.46,6.63-1.46Z"/>
  <rect class="cls-1" y="17.43" width="25.62" height="90.18" rx="5.24" ry="5.24"/>
  <rect class="cls-1" x="34.84" y="81.99" width="25.62" height="25.62" rx="5.22" ry="5.22"/>
  <rect class="cls-1" x="34.84" y="17.43" width="25.62" height="25.62" rx="5.24" ry="5.24"/>
  <rect class="cls-1" x="104.53" y="17.43" width="25.62" height="90.18" rx="5.23" ry="5.23"/>
  <rect class="cls-1" x="69.69" y="62.52" width="25.62" height="45.09" rx="5.15" ry="5.15"/>
  <g>
    <path class="cls-2" d="m238.98,127.27v-9.33h1.11v9.33h-1.11Z"/>
    <path class="cls-2" d="m246.49,127.27v-8.48h-3.71v-.85h8.53v.85h-3.71v8.48h-1.11Z"/>
    <path class="cls-2" d="m261.9,127.34c-.78,0-1.48-.15-2.1-.46-.62-.31-1.1-.73-1.45-1.27-.35-.54-.53-1.15-.53-1.85s.18-1.32.53-1.85c.35-.53.84-.95,1.45-1.25.62-.3,1.32-.45,2.1-.45.67,0,1.28.12,1.82.35s.97.58,1.28,1.04l-.8.48c-.27-.36-.61-.62-1.01-.79s-.84-.25-1.31-.25c-.56,0-1.07.11-1.52.34-.45.23-.81.54-1.07.95-.26.41-.39.89-.39,1.44s.13,1.03.39,1.44c.26.41.62.73,1.07.95.45.23.96.34,1.52.34.47,0,.91-.08,1.31-.25s.74-.43,1.01-.77l.8.48c-.31.45-.74.8-1.28,1.03-.54.23-1.15.35-1.82.35Z"/>
    <path class="cls-2" d="m271.09,127.34c-.77,0-1.46-.15-2.06-.46-.6-.31-1.08-.73-1.43-1.27s-.53-1.16-.53-1.84.18-1.32.53-1.85c.35-.53.83-.95,1.43-1.25.6-.3,1.29-.45,2.06-.45s1.48.15,2.09.46c.61.31,1.09.72,1.43,1.25.35.53.52,1.15.52,1.85s-.17,1.31-.52,1.85c-.35.54-.83.96-1.44,1.27-.61.31-1.31.46-2.08.46Zm0-.84c.57,0,1.08-.11,1.52-.34.44-.23.79-.55,1.05-.96.26-.41.38-.89.38-1.43s-.13-1.03-.38-1.44c-.26-.41-.61-.73-1.05-.95-.44-.23-.94-.34-1.51-.34s-1.07.11-1.51.34c-.44.23-.79.54-1.06.95-.26.41-.39.89-.39,1.44s.13,1.02.39,1.43c.26.41.61.73,1.05.96.44.23.94.34,1.5.34Z"/>
    <path class="cls-2" d="m282.25,120.21c.64,0,1.21.11,1.7.33.49.22.87.55,1.15.99s.41,1,.41,1.68v4.07h-1.07v-3.97c0-.74-.21-1.3-.62-1.67s-1-.57-1.76-.57c-.56,0-1.05.1-1.47.3-.42.2-.74.49-.96.87-.23.38-.34.83-.34,1.37v3.68h-1.07v-7h1.02v1.92l-.16-.36c.25-.51.65-.9,1.2-1.19.55-.29,1.21-.43,1.97-.43Z"/>
    <path class="cls-2" d="m291.43,127.34c-.65,0-1.27-.08-1.85-.25-.58-.16-1.04-.37-1.37-.62l.48-.75c.32.21.73.4,1.24.55.5.16,1.03.23,1.58.23.75,0,1.3-.1,1.63-.31.33-.21.5-.49.5-.83,0-.26-.09-.46-.28-.61s-.43-.26-.73-.33c-.3-.08-.64-.14-1.01-.19-.37-.05-.74-.12-1.11-.19-.37-.07-.7-.17-1-.31-.3-.14-.54-.33-.73-.57s-.28-.56-.28-.96.12-.72.36-1.03.6-.54,1.06-.71,1.04-.26,1.71-.26c.51,0,1.02.06,1.54.18.51.12.93.28,1.27.47l-.47.76c-.35-.21-.73-.37-1.13-.46-.4-.09-.8-.14-1.21-.14-.71,0-1.24.11-1.57.33-.34.22-.5.5-.5.83,0,.27.09.47.28.63.19.15.43.27.74.35.31.08.64.15,1.01.21.37.05.73.12,1.1.19.37.08.7.18,1.01.31.31.13.55.31.74.55.19.24.28.54.28.93,0,.41-.13.76-.38,1.06-.26.3-.63.53-1.12.69-.49.16-1.08.25-1.77.25Z"/>
    <path class="cls-2" d="m300.83,127.34c-.67,0-1.26-.11-1.76-.33-.5-.22-.89-.56-1.17-1s-.41-1-.41-1.67v-4.07h1.07v3.96c0,.75.21,1.31.62,1.69s1,.57,1.76.57c.55,0,1.03-.1,1.44-.3.41-.2.72-.49.93-.87.22-.38.32-.84.32-1.37v-3.67h1.07v7h-1.02v-1.92l.17.35c-.25.52-.64.92-1.17,1.21-.53.29-1.14.43-1.85.43Z"/>
    <path class="cls-2" d="m308.59,127.27v-9.89h1.07v9.89h-1.07Z"/>
    <path class="cls-2" d="m312.34,121.06v-.79h4.9v.79h-4.9Zm3.74,6.28c-.74,0-1.32-.18-1.72-.53-.4-.36-.6-.86-.6-1.51v-6.57h1.07v6.52c0,.41.12.72.35.95s.57.33,1.02.33c.47,0,.86-.12,1.17-.36l.38.68c-.21.17-.47.29-.76.37s-.6.12-.91.12Z"/>
    <path class="cls-2" d="m322.83,127.34c-.59,0-1.11-.09-1.54-.26-.44-.17-.77-.41-1-.72-.23-.31-.35-.66-.35-1.06,0-.36.1-.7.29-.99.2-.3.52-.54.96-.72.45-.18,1.05-.27,1.8-.27h2.73v.71h-2.7c-.76,0-1.29.12-1.59.36-.3.24-.45.54-.45.89,0,.4.18.72.53.96.35.24.84.36,1.48.36s1.12-.12,1.56-.37c.44-.24.76-.6.96-1.06l.24.65c-.2.46-.55.83-1.05,1.11s-1.12.41-1.88.41Zm2.73-.07v-1.55l-.05-.25v-2.59c0-.6-.19-1.05-.56-1.37-.38-.32-.94-.48-1.68-.48-.51,0-1,.08-1.46.23-.46.15-.85.35-1.18.6l-.48-.71c.4-.3.88-.54,1.45-.7.56-.16,1.16-.25,1.78-.25,1.02,0,1.81.22,2.37.67.56.45.84,1.13.84,2.05v4.35h-1.02Z"/>
    <path class="cls-2" d="m334.43,120.21c.64,0,1.21.11,1.7.33.49.22.87.55,1.15.99s.41,1,.41,1.68v4.07h-1.07v-3.97c0-.74-.21-1.3-.62-1.67s-1-.57-1.76-.57c-.56,0-1.05.1-1.47.3-.42.2-.74.49-.96.87-.23.38-.34.83-.34,1.37v3.68h-1.07v-7h1.02v1.92l-.16-.36c.25-.51.65-.9,1.2-1.19.55-.29,1.21-.43,1.97-.43Z"/>
    <path class="cls-2" d="m344.76,127.34c-.78,0-1.48-.15-2.1-.46-.62-.31-1.1-.73-1.45-1.27-.35-.54-.53-1.15-.53-1.85s.18-1.32.53-1.85c.35-.53.84-.95,1.45-1.25.62-.3,1.32-.45,2.1-.45.67,0,1.28.12,1.82.35s.97.58,1.28,1.04l-.8.48c-.27-.36-.61-.62-1.01-.79s-.84-.25-1.31-.25c-.56,0-1.07.11-1.52.34-.45.23-.81.54-1.07.95-.26.41-.39.89-.39,1.44s.13,1.03.39,1.44c.26.41.62.73,1.07.95.45.23.96.34,1.52.34.47,0,.91-.08,1.31-.25s.74-.43,1.01-.77l.8.48c-.31.45-.74.8-1.28,1.03-.54.23-1.15.35-1.82.35Z"/>
    <path class="cls-2" d="m350.8,129.93c-.37,0-.73-.05-1.06-.16s-.62-.27-.87-.48l.5-.71c.2.17.42.3.66.39.24.09.5.14.79.14.35,0,.66-.09.91-.26.26-.17.5-.48.73-.91l.51-1.03.12-.15,3.25-6.49h1.06l-3.96,7.84c-.22.45-.46.81-.73,1.08s-.55.46-.87.57c-.31.11-.66.17-1.04.17Zm2.11-2.45l-3.65-7.2h1.11l3.22,6.43-.69.77Z"/>
  </g>
</svg>