<?xml version="1.0" standalone="no"?>
<!DOCTYPE svg PUBLIC "-//W3C//DTD SVG 20010904//EN"
 "http://www.w3.org/TR/2001/REC-SVG-20010904/DTD/svg10.dtd">
<svg version="1.0" xmlns="http://www.w3.org/2000/svg"
 width="500.000000pt" height="500.000000pt" viewBox="0 0 500.000000 500.000000"
 preserveAspectRatio="xMidYMid meet">
<metadata>
Created by potrace 1.14, written by Peter Selinger 2001-2017
</metadata>
<g transform="translate(0.000000,500.000000) scale(0.100000,-0.100000)"
fill="#000000" stroke="none">
<path d="M0 2500 l0 -2500 2500 0 2500 0 0 2500 0 2500 -2500 0 -2500 0 0
-2500z m1241 1309 c19 -7 45 -21 57 -33 55 -49 52 20 52 -1278 0 -1342 5
-1246 -69 -1295 -33 -23 -40 -23 -306 -23 -266 0 -273 1 -305 23 -18 12 -41
38 -51 57 -18 33 -19 86 -19 1233 0 1279 -2 1236 48 1280 44 40 87 46 328 47
147 0 243 -4 265 -11z m1048 -14 c19 -11 43 -33 55 -48 20 -27 21 -42 24 -280
2 -139 0 -267 -3 -285 -9 -47 -57 -97 -108 -111 -29 -9 -119 -11 -289 -9 -274
3 -275 3 -325 78 -22 32 -23 40 -23 297 0 282 2 294 52 339 43 39 73 43 333
41 230 -2 253 -4 284 -22z m2041 0 c21 -12 44 -39 58 -65 l22 -44 0 -1192 0
-1191 -23 -43 c-42 -79 -52 -81 -369 -78 l-277 3 -35 34 c-25 25 -38 49 -46
85 -8 36 -10 401 -8 1226 l3 1175 22 35 c47 74 70 79 368 77 231 -2 253 -4
285 -22z m-1014 -1321 c15 -11 37 -33 48 -48 21 -27 21 -40 24 -579 2 -523 1
-554 -16 -587 -11 -19 -34 -45 -53 -58 -33 -23 -35 -23 -316 -20 l-283 3 -37
38 -38 37 -3 566 -2 566 21 35 c42 68 69 73 366 71 246 -3 263 -4 289 -24z
m-1020 -570 c15 -11 37 -33 48 -48 20 -26 21 -43 24 -294 3 -298 0 -313 -68
-359 -32 -22 -39 -23 -304 -23 -253 0 -273 1 -304 20 -18 11 -41 34 -52 52
-19 31 -20 47 -18 308 3 310 3 309 83 350 38 19 55 20 302 18 246 -3 263 -4
289 -24z"/>
</g>
</svg>
